<?xml version="1.0" encoding="UTF-8"?>
<svg id="Capa_2" data-name="Capa 2" xmlns="http://www.w3.org/2000/svg" viewBox="0 0 63.78 63.76">
  <defs>
    <style>
      .cls-1 {
        fill: none;
      }

      .cls-2 {
        fill: #23b574;
      }

      .cls-3 {
        fill: #0f8fef;
      }
    </style>
  </defs>
  <path class="cls-1" d="M44.76,7.67s-.03,0-.04.01l-1.74,3.01s0,.06.02.08c.24.16.46.28.68.35.11.04.26.05.44.04.45-.02.67-.51.59-.9-.02-.12-.07-.32-.15-.6-.04-.16-.04-.39.14-.46.26-.1.53-.11.66-.22.25-.21.32-.43.22-.67-.13-.3-.52-.52-.82-.66v.02Z"/>
  <path class="cls-1" d="M36.89,22.77s.07-.03.07-.07h0v-3.02s-.03-.07-.07-.07h-3.71s0,0,0-.01h0v-3.7s-.03-.07-.07-.07h-3.02s-.07.03-.07.07h0v3.69h0v.02h-3.71s-.07.03-.07.07h0v3.02s.03.07.07.07h3.71v3.71s.03.07.07.07h3.01s.07-.03.07-.07h0v-3.69h0v-.02s0,0,0,0h3.71Z"/>
  <path class="cls-1" d="M48.39,11.33h-.03l-1.58.82s-.03.04-.02.06h0s1.03.88,1.03.88c0,0,.05.01.06,0v-.02l.55-1.69s0-.05-.03-.06h.01Z"/>
  <path class="cls-1" d="M39.19,8.22l1.23.45s.05,0,.06-.03v-.02l-.06-1.75s-.02-.05-.05-.05c0,0-.02,0-.03.02l-1.17,1.31s-.02.05,0,.07h.02Z"/>
  <ellipse class="cls-1" cx="6.87" cy="28.64" rx="1.93" ry="1.47" transform="translate(-.6 .15) rotate(-1.2)"/>
  <ellipse class="cls-1" cx="29.66" cy="6.28" rx="1.47" ry="1.93" transform="translate(-.66 6.3) rotate(-12)"/>
  <path class="cls-1" d="M57.78,32.71l-1.61-.76s-.05,0-.06.02v.02l-.08,1.31s.02.05.04.05h.02l1.69-.55s.04-.03.03-.06c0,0-.01-.02-.03-.03Z"/>
  <path class="cls-3" d="M63.57,28.31c-.16-1.52-.45-3.05-.85-4.57-1.24-4.66-3.39-8.8-6.47-12.43-3.09-3.64-6.98-6.6-11.36-8.56C40.88.96,36.65.05,32.21,0c-.94,0-1.86.02-2.78.09-.92.07-1.84.18-2.76.34-4.38.72-8.41,2.28-12.11,4.67-4.03,2.61-7.41,6.12-9.91,10.2C2.17,19.35.67,23.78.17,28.57c-.16,1.57-.21,3.11-.14,4.65.3,6.32,2.26,12.05,5.9,17.19.36.51,1.13.04.75-.5-2.11-2.95-3.64-6.13-4.6-9.53-.89-3.14-1.28-6.32-1.17-9.53.17-5.08,1.56-10.08,4.14-14.48,2.02-3.46,4.57-6.4,7.65-8.83C17.53,3.73,23.34,1.46,29.51.98s12.26.87,17.62,3.9c3.41,1.93,6.39,4.45,8.91,7.55,3.22,3.96,5.36,8.68,6.31,13.67.6,3.16.7,6.36.31,9.6-.43,3.5-1.45,6.88-3.08,10.12-.29.59.53.94.81.38,2.8-5.63,3.87-11.6,3.19-17.89h0Z"/>
  <path class="cls-3" d="M29.48,8.44c1.38.09,2.47-.86,2.38-2.3s-1.28-2.25-2.64-1.99c-.91.17-1.48.69-1.71,1.57-.05.19-.07.42-.05.69s.06.49.13.68c.34.85.97,1.3,1.89,1.35ZM29.26,4.39c.79-.17,1.62.54,1.84,1.58s-.24,2.02-1.04,2.19c-.79.17-1.62-.54-1.84-1.58s.24-2.02,1.04-2.19Z"/>
  <path class="cls-2" d="M38.63,4.87c-.53-.1-1.08-.21-1.63-.32-.56-.1-1.11-.2-1.64-.3-.03,0-.07.02-.07.05l-.06.31h0s0,.04.03.04l1.16.08c.08,0,.11.05.09.12l-.71,3.72s0,.04.03.05c.11.03.24.05.37.08.13.03.26.05.37.07.03,0,.05,0,.05-.04l.7-3.72c0-.08.06-.1.13-.08l1.11.35h0s.04,0,.04-.03l.06-.31s-.02-.07-.05-.07h.02Z"/>
  <path class="cls-3" d="M24.86,5.37c.23.09.42.21.57.35,0,0,0,.01.02.01.03,0,.06,0,.07-.03l.17-.54h0s0-.06-.04-.07c-.64-.19-1.25-.13-1.82.17-.55.29-1,.84-1.08,1.44-.16,1.06.32,2.15,1.36,2.53.54.2,1.09.17,1.66-.08.46-.21.79-.56,1-1.08.02-.04,0-.09-.04-.12,0,0-.02-.01-.03-.01-.04,0-.07.01-.09.05-.17.35-.43.61-.79.79-.76.37-1.51.08-1.98-.59-.47-.66-.72-1.7-.19-2.4.27-.35.78-.59,1.22-.42h0Z"/>
  <path class="cls-2" d="M37.99,9.05l.14.05c.09.03.17.01.23-.06l.5-.54s.06-.03.09-.02l1.51.53s.06.05.06.09l.04.77c0,.06.05.12.11.14l.71.25h0s.04-.02.03-.04l-.23-4.49s-.02-.07-.04-.09c-.05-.05-.14-.04-.19.01l-3,3.28c-.05.06-.04.1.03.13h0ZM39.17,8.14l1.17-1.31s.02-.02.03-.02c.03,0,.05.02.05.05l.06,1.75v.02s-.04.04-.06.03l-1.23-.45h-.02s-.02-.05,0-.07Z"/>
  <rect class="cls-3" x="20.9" y="6.42" width=".69" height="4.23" rx=".06" ry=".06" transform="translate(-1.61 9.82) rotate(-25.1)"/>
  <path class="cls-2" d="M46.12,8.14c-.18-.15-.33-.26-.45-.33-.62-.36-1.1-.63-1.42-.82-.05-.03-.09-.02-.12.03l-2.03,3.51s0,.06.02.08c.55.34,1.11.66,1.68.95.19.1.4.16.62.18.39.04.69-.06.91-.33.14-.16.21-.36.21-.58s-.05-.43-.15-.61c-.14-.24-.24-.42-.31-.52-.12-.18-.09-.29.1-.33h.05c.45.02.82.09,1.09-.22.13-.15.17-.32.13-.5-.04-.21-.15-.39-.32-.53v.02ZM45.37,8.99c-.13.11-.41.12-.66.22-.17.07-.18.3-.14.46.07.28.12.48.15.6.07.39-.14.88-.59.9-.19,0-.33,0-.44-.04-.22-.08-.44-.19-.68-.35-.03-.02-.03-.05-.02-.08l1.74-3.01s.03-.02.04-.01c.31.14.7.36.82.66.1.24.03.46-.22.67v-.02Z"/>
  <path class="cls-3" d="M19.67,10.3l-4.04-.96s-.05,0-.07.01c-.04.03-.05.08-.02.12l2.26,3.44s.06.05.1.02l.13-.09s.05-.07.02-.11l-1.59-2.43c-.05-.07-.03-.1.06-.08.66.16,1.99.47,3.98.95.07.02.12.01.15,0,.02-.02.02-.05,0-.07l-2.26-3.44s-.07-.06-.12-.02l-.14.09s-.04.05-.02.08c.96,1.47,1.48,2.26,1.56,2.38.02.03.03.06.03.09s-.02.04-.04.03h.01Z"/>
  <path class="cls-3" d="M13.31,10.82s.05,0,.05-.04l.15-1.26c0-.07-.01-.08-.06-.03l-.25.25s-.06.09-.05.15c.03.33.07.63.12.9,0,.02.02.03.03.03h0Z"/>
  <path class="cls-2" d="M49.35,10.43l-3.95,2.02c-.07.04-.08.08,0,.13l.11.1c.07.06.15.07.23.03l.66-.34s.06-.01.09,0l1.23,1.02s.04.06.03.1l-.23.73c-.02.06,0,.13.05.17l.57.48h0s.04,0,.05-.02l1.35-4.29v-.1c-.03-.07-.11-.09-.18-.06v.03ZM48.42,11.38l-.55,1.69v.02s-.04.02-.06,0l-1.03-.87h0s0-.06.02-.07l1.58-.82h.03s.04.03.03.06h-.01Z"/>
  <rect class="cls-3" x="14.89" y="10.37" width=".69" height="4.22" rx=".06" ry=".06" transform="translate(-4.44 13.19) rotate(-41.4)"/>
  <path class="cls-2" d="M13.47,23.11c-1.68,3.78-2.15,7.72-1.42,11.82.47,2.62,1.43,5.06,2.89,7.31.13.2.31.26.55.17.2-.08.28-.22.27-.42,0-.09-.07-.23-.17-.4-1.65-2.62-2.61-5.48-2.89-8.59-.24-2.67.07-5.27.92-7.81.83-2.47,2.11-4.68,3.83-6.64,3.26-3.7,7.79-6,12.71-6.45,4.92-.45,9.79,1.01,13.66,4.06,2.05,1.62,3.71,3.57,4.97,5.85,1.29,2.34,2.06,4.84,2.3,7.51.28,3.1-.15,6.09-1.3,8.96-.08.19-.11.33-.1.42.02.2.13.32.34.36.25.05.41-.04.51-.26,1.03-2.48,1.54-5.04,1.53-7.71-.02-4.16-1.19-7.96-3.52-11.37-3.3-4.84-8.62-8.04-14.44-8.67-1.32-.14-2.66-.16-4.02-.03-1.36.12-2.67.37-3.95.75-5.62,1.67-10.27,5.77-12.65,11.13h-.02Z"/>
  <path class="cls-2" d="M52.04,12.84s0-.01,0-.02c-.03-.04-.09-.05-.13-.01l-3.16,2.56h0s-.06.11-.02.17l.1.12c.04.06.09.06.15.02l2.11-1.71c.06-.05.09-.04.08.04-.17,1.73-.27,2.76-.3,3.07-.03.29-.05.64-.06,1.06,0,.04.02.06.05.07.02,0,.04,0,.06-.02l3.19-2.58c.05-.04.06-.09.01-.14l-.11-.14c-.04-.05-.09-.06-.14-.01l-2.1,1.71h0s-.02-.01-.02-.02c.15-1.85.26-3.15.35-3.9,0-.1,0-.19-.03-.26h-.01Z"/>
  <path class="cls-3" d="M11.18,13.57l-.36.43s-.02.07,0,.1c.52.46,1.23,1.1,2.14,1.91.3.26.52.42.68.47.32.09.61-.01.89-.32.65-.71,1-1.1,1.07-1.17h0s.03-.09-.01-.12l-.07-.06s-.1-.04-.15.01c-.49.56-.79.9-.91,1.01-.15.14-.29.18-.44.12-.11-.04-.19-.08-.22-.11-.28-.24-1.13-1-2.54-2.26-.03-.03-.06-.03-.09,0h.01Z"/>
  <path class="cls-2" d="M34.15,23.67h2.98c.37,0,.66-.33.73-.66,0-.06.02-.26.02-.62v-2.4c0-.35,0-.56-.02-.61-.07-.33-.37-.66-.73-.66h-2.98s-.08-.04-.08-.08v-2.59c0-.5-.04-.84-.48-1.06-.11-.06-.28-.08-.5-.08h-3.07c-.43,0-.71.17-.86.51-.05.12-.08.31-.07.57v2.66s-.03.07-.07.07h-2.62c-.35,0-.58.03-.68.09-.16.09-.27.22-.35.4-.04.1-.07.27-.07.51v2.96c0,.24.03.41.07.51.08.17.2.31.35.4.1.06.33.09.68.09h2.62s.07.03.07.07v2.66c0,.26.02.45.07.57.14.34.43.51.86.51h3.07c.22,0,.38-.03.5-.08.44-.22.47-.56.48-1.06v-2.59s.04-.08.08-.08h0ZM33.2,22.77h-.02s0,0,0,.01h0v3.7h0s-.03.07-.07.07h-3.01s-.07-.03-.07-.07v-3.69h0v-.02h-3.71s-.07-.03-.07-.07v-3.02h0s.03-.07.07-.07h3.71v-3.71h0s.03-.07.07-.07h3.02s.07.03.07.07v3.69h0v.02s0,0,0,0h3.7s.07.03.07.07v3.02h0s-.03.07-.07.07h-3.7Z"/>
  <path class="cls-3" d="M9.51,16.41c.23-.08.45-.12.66-.1h.02s.04-.04.03-.07l-.23-.52h0s-.05-.04-.08-.03c-.6.28-1.03.72-1.27,1.32-.23.58-.2,1.29.13,1.8.58.91,1.65,1.41,2.68,1.02.53-.2.93-.58,1.2-1.15.21-.46.23-.94.05-1.47-.01-.04-.06-.07-.11-.07h-.03s-.05.05-.03.09c.1.37.08.74-.08,1.11-.34.78-1.09,1.04-1.88.85-.78-.19-1.66-.81-1.71-1.68-.03-.44.2-.95.65-1.11h0Z"/>
  <path class="cls-2" d="M55.53,18.11c-.42-.3-.92-.42-1.49-.35-.2.03-.42.09-.65.21-.3.15-.5.27-.59.36-.81.8-.93,1.7-.36,2.69.31.53.77.84,1.39.92.06,0,.1-.01.12-.06h0s0-.09-.05-.11c-.38-.15-.63-.28-.75-.41-.44-.48-.56-.98-.36-1.51.26-.68.94-1.17,1.64-1.37.65-.18,1.34.02,1.56.69.11.32-.12.76-.32,1,0,0-.01.02-.01.03,0,.03.01.07.05.08l.69.16h0s.06-.02.07-.05c.08-.46.03-.89-.16-1.3-.19-.43-.45-.76-.78-.99h0Z"/>
  <rect class="cls-3" x="8.53" y="19.06" width=".69" height="4.22" rx=".05" ry=".05" transform="translate(-14.08 20.74) rotate(-66.2)"/>
  <path class="cls-2" d="M55.09,23.53c1.1-.33,1.97-.59,2.61-.79h0s.05-.04.04-.08l-.22-.72s-.03-.03-.05-.03c-.68.21-1.35.41-2.01.61-.57.17-.94.33-1.13.47-.39.31-.57.75-.54,1.33.02.25.11.51.22.74.3.64,1.02,1.01,1.73.79,1.31-.39,2.18-.65,2.6-.78.07-.02.1-.07.08-.14l-.05-.15c-.02-.07-.07-.09-.14-.07-.78.24-1.61.49-2.49.75-.23.07-.39.1-.49.09-.49-.04-.79-.31-.92-.8-.16-.61.18-1.06.75-1.23h0Z"/>
  <path class="cls-3" d="M5.64,23.86l-.15.54s.01.07.05.08c.66.2,1.57.48,2.74.84.38.12.65.16.81.14.33-.05.55-.27.68-.66.29-.92.45-1.42.48-1.51h0s-.02-.09-.06-.11l-.09-.02c-.07-.02-.11,0-.13.07-.21.72-.34,1.15-.4,1.29-.07.19-.19.28-.35.3h-.24c-.36-.1-1.45-.43-3.26-.99-.04-.01-.07,0-.08.05v-.02Z"/>
  <circle class="cls-3" cx="42.84" cy="31.48" r="6.02"/>
  <path class="cls-3" d="M4.72,28.34c-.18,1.28.58,2.31,1.85,2.48,1.27.17,2.27-.61,2.45-1.89.18-1.28-.58-2.31-1.85-2.48s-2.27.61-2.45,1.89ZM6.84,27.17c1.06-.02,1.94.62,1.96,1.43.02.81-.83,1.49-1.9,1.51-1.06.02-1.94-.62-1.96-1.43s.83-1.49,1.9-1.51Z"/>
  <path class="cls-2" d="M58.22,29.11c-.53.17-.84-.22-1.17-.58-.31-.34-.71-.25-1.01.05-.41.4-.76.78-1.07,1.14-.04.05-.06.12-.06.19l.1.93h.03c.07-.06.13-.11.18-.16.47-.53.95-1.06,1.44-1.58.2-.21.37-.2.52.01.19.26.29.64.69.84.15.07.31.09.48.05.37-.08.59-.34.66-.76.03-.21.04-.39.02-.56-.03-.29-.09-.85-.18-1.69,0-.06-.04-.09-.1-.08l-4.07.43h0s-.03.02-.03.04l.08.76s.03.04.05.04l3.79-.4s.05.02.06.04c.06.43.16,1.09-.39,1.27l-.02.02Z"/>
  <path class="cls-2" d="M59.07,32.97l-3.98-1.97c-.07-.04-.11-.01-.11.07v.15c-.01.09.03.16.11.2l.66.33s.05.04.04.08l-.09,1.59s-.03.07-.06.08l-.73.25c-.06.02-.1.08-.11.14l-.04.75h0s.03.04.05.03l4.25-1.46s.06-.04.08-.07c.03-.07,0-.15-.06-.18h-.01ZM57.77,32.8l-1.69.55h-.02s-.05-.02-.04-.05l.08-1.31v-.02s.04-.03.06-.02l1.61.76s.02.02.03.03c0,.02,0,.05-.03.06Z"/>
  <circle class="cls-3" cx="21.44" cy="36.53" r="5.09"/>
  <path class="cls-3" d="M4.83,35.02c0,.06.04.09.1.09l4.05-.36h0s.07-.04.06-.08l-.05-.56s-.03-.06-.06-.05l-3.83.34s-.06-.02-.06-.05c-.03-.23-.04-.45-.01-.67.07-.66.73-.9,1.34-.8.52.08.76.53.82,1.01,0,.05.03.07.08.07h0s.07-.03.08-.08c.01-.45-.07-.84-.26-1.16-.28-.48-.71-.68-1.3-.6-.7.09-1.12.82-1.07,1.47.06.74.09,1.22.11,1.44h0Z"/>
  <path class="cls-3" d="M53.87,44.59c-.22-.23-.37-.39-.46-.49-.63-.66-1.34-1.41-2.12-2.24-1.09-1.16-2.44-1.74-4.05-1.74h-8.4c-.56,0-.95,0-1.16.04-.96.12-1.82.48-2.58,1.07-.03.03-.09.08-.16.15-.05.05-.11.1-.17.14-.77.55-2.71,1.91-5.81,4.1-.04.03-.09.02-.12-.02-.36-.48-.8-.87-1.3-1.18-.52-.32-1.12-.48-1.81-.49-2.24,0-4.86,0-7.88,0-.79,0-1.33.04-1.62.12-.68.18-1.23.5-1.66.97-.93,1.01-1.87,2.01-2.81,3.01-.13.13-.26.31-.4.45-.18.18-.27.28-.28.28-.08.08-.65.7-1.72,1.86-.32.34-.46.75-.44,1.22.02.45.2.83.55,1.15.52.48,1.29.57,1.9.25.1-.05.37-.25.79-.59,1.96-1.58,3.02-2.43,3.17-2.54.16-.12.31-.18.43-.16.28.04.45.17.53.38.05.12.04.32,0,.58-.44,2.4-.86,4.69-1.26,6.87v.02s-.04.02-.06,0c-.92-.59-1.81-1.24-2.67-1.94-.24-.2-.49-.38-.75-.13-.25.24-.17.54.09.76,4.36,3.55,9.32,5.81,14.89,6.79h0s.04-.02.04-.04v-1.41c0-.06-.02-.12-.07-.16-.65-.65-1.17-1.16-1.56-1.53-.94-.89-1.67-1.6-2.2-2.11-.1-.1-.54-.52-1.31-1.27-.47-.45-.77-.94-.9-1.45-.45-1.71.83-3.39,2.58-3.46.43-.02.85.07,1.28.25.28.12.58.37.84.57.9.72,1.76,1.4,2.57,2.06.05.04.07.03.06-.03-.05-.39-.1-.81-.12-1.26-.02-.32-.09-.56-.16-.88-.14-.64-.14-1.31,0-2.01.25-1.21.88-2.2,1.91-2.98.92-.69,1.96-1.03,3.13-.99.57.02,1.1.11,1.59.3.98.37,1.77.98,2.36,1.83.32.46.55.94.7,1.46.42,1.49.19,2.91-.68,4.25-.11.17-.32.35-.4.5v.53s0,.02,0,.03c.02.02.05.02.07,0,.13-.13.26-.24.37-.33,2.22-1.78,3.34-2.67,3.34-2.67.61-.48,1.28-.69,2.01-.61.55.06,1.04.26,1.49.61.56.44.9,1.02,1.01,1.74.09.61,0,1.17-.25,1.67-.15.29-.42.63-.81,1-.12.12-.43.41-.94.89-.72.68-1.24,1.18-1.56,1.5-.34.34-.62.61-.83.8-.22.2-.75.71-1.59,1.52-.06.06-.1.14-.1.23v1.21h0s.02.03.04.02c5.9-1.27,11.05-3.98,15.44-8.12.24-.22.45-.42.3-.72-.14-.3-.5-.33-.73-.11-1.38,1.34-2.88,2.55-4.5,3.61h-.02s-.04-.02-.04-.04c0-4.46,0-7.65-.03-9.56,0-.36.02-.59.06-.69.11-.23.28-.37.5-.41.33-.07.51.1.79.34.44.37,1.77,1.5,3.99,3.39.19.17.35.3.46.39.18.15.35.26.5.32.65.25,1.25.2,1.81-.16.48-.31.78-.76.89-1.35.12-.63-.15-1.27-.57-1.73-.82-.88-1.96-2.1-3.42-3.65h0Z"/>
  <circle class="cls-2" cx="32.47" cy="51.57" r="3.81"/>
  <path class="cls-2" d="M41.21,57.78c.5-.49,1.01-.98,1.52-1.46.32-.3.52-.52.61-.66.18-.3.27-.59.29-.87.03-.57-.13-1.04-.47-1.41-.33-.36-.74-.58-1.22-.64-.53-.07-1.01.07-1.44.41-2.16,1.75-3.52,2.84-4.08,3.28-1.59,1.25-3.37,1.66-5.34,1.24-.94-.2-1.9-.7-2.64-1.3-1.34-1.09-2.65-2.14-3.92-3.16-.46-.37-.95-.53-1.47-.48-.27.03-.51.1-.72.21-.25.14-.45.3-.59.49-.55.74-.58,1.5-.07,2.29.07.11.14.2.2.26.95.94,1.94,1.89,2.96,2.87.03.03.76.73,2.18,2.1.21.2.41.38.41.64v1.79s.03.07.07.08c1.5.2,3,.3,4.5.3.29,0,.55,0,.78-.02.67-.04,1.24-.04,1.95-.11.87-.08,1.78-.2,2.74-.37.02,0,.04-.02.04-.05v-1.41c0-.12,0-.23.04-.32.04-.13.08-.23.15-.3.41-.43,1.19-1.19,2.34-2.28.35-.33.74-.71,1.17-1.14v.02Z"/>
</svg>